<svg width="60" height="60" viewBox="0 0 60 60" fill="none" xmlns="http://www.w3.org/2000/svg">
<path d="M48.8993 4.49707H38.4008V6.37213H48.8993V4.49707Z" fill="#105378"/>
<path d="M34.7085 4.49707H25.1733V6.37213H34.7085V4.49707Z" fill="#105378"/>
<path d="M21.4169 4.49707H11.304V6.37213H21.4169V4.49707Z" fill="#105378"/>
<path d="M60 60H0V4.49707H7.36445V6.37213H1.87506V58.1251H58.1251V6.37213H52.4423V4.49707H60V60Z" fill="#105378"/>
<path d="M10.2857 0H8.44897V11.2653H10.2857V0Z" fill="#105378"/>
<path d="M24.3673 0H22.5306V11.2653H24.3673V0Z" fill="#105378"/>
<path d="M37.4694 0H35.6327V11.2653H37.4694V0Z" fill="#105378"/>
<path d="M51.551 0H49.7143V11.2653H51.551V0Z" fill="#105378"/>
<path d="M56.2041 15.0612H3.79591V16.898H56.2041V15.0612Z" fill="#105378"/>
<path d="M15.0476 30.1492H5.58846V20.6901H15.0476V30.1492ZM7.46339 28.2742H13.1726V22.565H7.46339V28.2742Z" fill="#105378"/>
<path d="M28.1671 30.1492H18.7079V20.6901H28.1671V30.1492ZM20.5829 28.2742H26.2921V22.565H20.5829V28.2742Z" fill="#105378"/>
<path d="M41.2921 30.1492H31.8329V20.6901H41.2921V30.1492ZM33.7079 28.2742H39.4171V22.565H33.7079V28.2742Z" fill="#105378"/>
<path d="M54.3997 30.1492H44.9405V20.6901H54.3997V30.1492ZM46.8156 28.2742H52.5247V22.565H46.8156V28.2742Z" fill="#105378"/>
<path d="M15.0476 42.3367H5.58846V32.8776H15.0476V42.3367ZM7.46339 40.4617H13.1726V34.7525H7.46339V40.4617Z" fill="#105378"/>
<path d="M28.1671 42.3367H18.7079V32.8776H28.1671V42.3367ZM20.5829 40.4617H26.2921V34.7525H20.5829V40.4617Z" fill="#105378"/>
<path d="M41.2921 42.3367H31.8329V32.8776H41.2921V42.3367ZM33.7079 40.4617H39.4171V34.7525H33.7079V40.4617Z" fill="#105378"/>
<path d="M54.3997 42.3367H44.9405V32.8776H54.3997V42.3367ZM46.8156 40.4617H52.5247V34.7525H46.8156V40.4617Z" fill="#105378"/>
<path d="M15.0476 54.5242H5.58846V45.0651H15.0476V54.5242ZM7.46339 52.6493H13.1726V46.9401H7.46339V52.6493Z" fill="#105378"/>
<path d="M28.1671 54.5242H18.7079V45.0651H28.1671V54.5242ZM20.5829 52.6493H26.2921V46.9401H20.5829V52.6493Z" fill="#105378"/>
<path d="M41.2921 54.5242H31.8329V45.0651H41.2921V54.5242ZM33.7079 52.6493H39.4171V46.9401H33.7079V52.6493Z" fill="#105378"/>
<path d="M54.3997 54.5242H44.9405V45.0651H54.3997V54.5242ZM46.8156 52.6493H52.5247V46.9401H46.8156V52.6493Z" fill="#105378"/>
</svg>
