<svg width="30" height="30" viewBox="0 0 30 30" fill="none" xmlns="http://www.w3.org/2000/svg">
<path d="M28.125 30C24.7361 30 21.3681 29.1667 18.0208 27.5C14.6736 25.8333 11.6667 23.6667 9 21C6.33333 18.3333 4.16667 15.3264 2.5 11.9792C0.833333 8.63194 0 5.26389 0 1.875C0 1.34722 0.180556 0.902778 0.541667 0.541667C0.902778 0.180556 1.34722 0 1.875 0H7.70833C8.09722 0 8.4375 0.131944 8.72917 0.395833C9.02083 0.659722 9.20833 1.01389 9.29167 1.45833L10.4167 6.70833C10.4722 7.09722 10.4653 7.45139 10.3958 7.77083C10.3264 8.09028 10.1806 8.36111 9.95833 8.58333L5.79167 12.7917C7.34722 15.375 9.09028 17.625 11.0208 19.5417C12.9514 21.4583 15.1389 23.0833 17.5833 24.4167L21.5417 20.3333C21.8194 20.0278 22.1389 19.8125 22.5 19.6875C22.8611 19.5625 23.2222 19.5417 23.5833 19.625L28.5417 20.7083C28.9583 20.7917 29.3056 21 29.5833 21.3333C29.8611 21.6667 30 22.0556 30 22.5V28.125C30 28.6528 29.8194 29.0972 29.4583 29.4583C29.0972 29.8194 28.6528 30 28.125 30ZM4.54167 10.5L7.91667 7.08333L6.95833 2.5H2.5C2.5 3.58333 2.66667 4.77083 3 6.0625C3.33333 7.35417 3.84722 8.83333 4.54167 10.5ZM27.5 27.5V23.0417L23.2083 22.1667L19.9167 25.625C21.0556 26.1528 22.2917 26.5833 23.625 26.9167C24.9583 27.25 26.25 27.4444 27.5 27.5Z" fill="#1373A7"/>
</svg>
