<svg width="22" height="22" viewBox="0 0 22 22" fill="none" xmlns="http://www.w3.org/2000/svg">
<path d="M15.6129 0H14.4224C11.1133 0 8.42114 2.69219 8.42114 6.0013V8.53403H6.38705C6.1776 8.53403 6.00774 8.70388 6.00774 8.91334V11.9478C6.00774 12.1573 6.1776 12.3271 6.38705 12.3271H8.42099V21.6207C8.42099 21.8301 8.59085 22 8.8003 22H11.8348C12.0442 22 12.2141 21.8301 12.2141 21.6207V12.3271H15.2323C15.4418 12.3271 15.6117 12.1573 15.6117 11.9478V8.91334C15.6117 8.70388 15.4418 8.53403 15.2323 8.53403H12.2141V6.0013C12.2141 4.78371 13.2047 3.7931 14.4222 3.7931H15.6128C15.8222 3.7931 15.9921 3.62325 15.9921 3.41379V0.37931C15.9923 0.169855 15.8224 0 15.6129 0Z" fill="#1373A7"/>
</svg>
