<svg width="60" height="60" viewBox="0 0 60 60" fill="none" xmlns="http://www.w3.org/2000/svg">
<path d="M30.0002 0L19.0719 6.922C17.5174 5.88292 16.4919 4.11331 16.4919 2.10719H14.5622C14.5622 5.29998 11.9657 7.89645 8.77292 7.89645V9.8262C10.1218 9.8262 11.3607 10.2933 12.3459 11.0691L0.0889282 18.9482V30.8771L5.87819 27.2105V34.913C5.87819 37.5731 3.71398 39.7375 1.0537 39.7375V41.6672C3.71378 41.6672 5.87819 43.8314 5.87819 46.4917V60H13.5972H29.0352H54.122V27.2105L59.9113 30.8771V18.9435L30.0002 0ZM15.527 5.84134C16.2303 7.10829 17.2801 8.15807 18.547 8.86143C17.2801 9.56479 16.2303 10.6137 15.527 11.8815C15.14 11.1839 14.6402 10.5617 14.0643 10.0174L14.0402 9.97976L14.0295 9.98655C13.5684 9.55511 13.0626 9.17019 12.5069 8.86143C13.7738 8.15807 14.8234 7.10911 15.527 5.84134ZM4.53014 40.7025C5.47577 40.1323 6.27278 39.3353 6.84296 38.3896C7.41314 39.3353 8.21015 40.1331 9.15578 40.7025C8.21015 41.2726 7.41314 42.0697 6.84296 43.0153C6.27278 42.0697 5.47577 41.2726 4.53014 40.7025ZM27.1055 58.0702H15.527V58.07V32.9835H27.1055V58.0702ZM52.1923 58.07H29.0352V31.0535H13.5972V58.07H7.80794V46.4915C7.80794 43.8314 9.97215 41.667 12.6324 41.667V39.7373C9.97235 39.7373 7.80794 37.5731 7.80794 34.9128V25.9886L30 11.9332L36.2205 15.8728C34.6419 17.4956 32.4382 18.5098 30 18.5098V20.44C34.7876 20.44 38.684 24.3351 38.684 29.1239H40.6138C40.6138 25.8472 42.4393 22.9903 45.1256 21.512L52.1923 25.988V58.07ZM39.649 14.2464C40.7095 16.5524 42.5725 18.4147 44.8767 19.4752C42.5717 20.5357 40.7095 22.3977 39.649 24.7039C38.5885 22.3979 36.7254 20.5357 34.4212 19.4752C36.7254 18.4147 38.5883 16.5524 39.649 14.2464ZM57.9815 27.3706L47.3851 20.659C48.0016 20.52 48.6395 20.44 49.2975 20.44V18.5102C44.5099 18.5102 40.6135 14.6151 40.6135 9.8262H38.6838C38.6838 11.4799 38.211 13.0219 37.4053 14.3388L29.9998 9.64856L2.01868 27.3706V20.0019L13.6571 12.5202C14.2273 13.4167 14.5622 14.477 14.5622 15.6155H16.4919C16.4919 12.4227 19.0884 9.8262 22.2812 9.8262V7.89645C21.9405 7.89645 21.6087 7.86084 21.2845 7.80485L30.0002 2.28483L57.9817 20.0067V27.3706H57.9815Z" fill="black"/>
<path d="M32.8947 42.6322H47.368V31.0537H32.8947V42.6322ZM34.8245 32.9835H45.4382V40.7025H34.8245V32.9835Z" fill="black"/>
<path d="M25.1757 45.5267H23.246V47.4565H25.1757V45.5267Z" fill="black"/>
<path d="M43.5085 34.9132H41.5787V36.843H43.5085V34.9132Z" fill="black"/>
<path d="M50.2625 54.2106H48.3328V56.1403H50.2625V54.2106Z" fill="black"/>
<path d="M46.403 54.2106H44.4733V56.1403H46.403V54.2106Z" fill="black"/>
<path d="M42.5435 54.2106H40.6138V56.1403H42.5435V54.2106Z" fill="black"/>
</svg>
