<svg width="60" height="60" viewBox="0 0 60 60" fill="none" xmlns="http://www.w3.org/2000/svg">
<g clip-path="url(#clip0_18_189)">
<path d="M56.8647 59.3515C56.6119 59.3515 56.3592 59.2551 56.1664 59.0624C55.7805 58.6765 55.7805 58.0516 56.1664 57.6661L56.6036 57.2289H11.5067L11.9439 57.6658C12.3298 58.0516 12.3298 58.6765 11.9439 59.062C11.5584 59.4479 10.9328 59.4479 10.5477 59.062L8.44921 56.9635C8.2533 56.7676 8.15693 56.5101 8.16009 56.2529C8.16009 56.249 8.16009 56.2446 8.16009 56.2407C8.16009 55.901 8.3315 55.6016 8.59258 55.4239L10.5971 53.4198C10.9825 53.0339 11.6082 53.0339 11.9933 53.4198C12.3792 53.8057 12.3792 54.4305 11.9933 54.816L11.556 55.2533H56.6534L56.2162 54.816C55.8303 54.4302 55.8303 53.8053 56.2162 53.4198C56.6017 53.0339 57.2273 53.0339 57.6124 53.4198L59.7109 55.5183C59.9072 55.7142 60.0032 55.9717 60 56.2288C60 56.2332 60 56.2371 60 56.2411C60 56.5808 59.8286 56.8802 59.5675 57.0579L57.563 59.062C57.3703 59.2551 57.1175 59.3515 56.8647 59.3515ZM3.11039 52.4889C2.77071 52.4889 2.47093 52.3171 2.29359 52.056L0.289506 50.0519C-0.09638 49.666 -0.09638 49.0412 0.289506 48.6557C0.674998 48.2698 1.30063 48.2698 1.68573 48.6557L2.12296 49.0929V3.99516L1.68573 4.43239C1.30024 4.81828 0.674603 4.81828 0.289506 4.43239C-0.09638 4.0465 -0.09638 3.42166 0.289506 3.03617L2.38799 0.93769C2.58389 0.741785 2.83983 0.641857 3.09814 0.648572C3.44809 0.656866 3.74787 0.816829 3.92758 1.08146L5.93166 3.08554C6.31755 3.47143 6.31755 4.09627 5.93166 4.48176C5.54617 4.86765 4.92054 4.86765 4.53544 4.48176L4.09821 4.04453V49.1423L4.53544 48.7051C4.92093 48.3192 5.54657 48.3192 5.93166 48.7051C6.31755 49.0909 6.31755 49.7158 5.93166 50.1013L3.83318 52.1998C3.63728 52.3957 3.37739 52.4944 3.12303 52.4889C3.11868 52.4889 3.11473 52.4889 3.11039 52.4889ZM59.0126 49.6952H11.295C10.7495 49.6952 10.3075 49.2533 10.3075 48.7078V1.63639C10.3075 1.09094 10.7495 0.648967 11.295 0.648967H39.8095C40.3549 0.648967 40.7969 1.09094 40.7969 1.63639V20.8016H59.0122C59.5576 20.8016 59.9996 21.2435 59.9996 21.789V48.7074C60 49.2529 59.558 49.6952 59.0126 49.6952ZM40.7547 47.7204H58.0251V22.7764H40.7547V47.7204ZM21.8387 47.7204H38.7802V34.4936H21.8387V47.7204ZM12.2824 47.7204H19.8635V34.4936H12.2824V47.7204ZM20.8513 32.5188H38.7802V21.789C38.7802 21.6891 38.7952 21.5927 38.8225 21.5014V11.1903H12.2824V32.5188H20.8513ZM26.5187 9.21549H38.8225V2.62382H26.5187V9.21549ZM12.2824 9.21549H24.5435V2.62382H12.2824V9.21549Z" fill="#105378"/>
</g>
<defs>
<clipPath id="clip0_18_189">
<rect width="60" height="60" fill="white"/>
</clipPath>
</defs>
</svg>
