<svg width="428" height="323" viewBox="0 0 428 323" fill="none" xmlns="http://www.w3.org/2000/svg">
<g clip-path="url(#clip0_18_15)">
<path d="M408.315 130.65H286.895V60.7046H0.115181V163.034H121.535V187.521H54.2416V273.701H341.021V232.98H408.315V130.65Z" fill="#F0F3F8"/>
<path d="M427.885 49.2995H306.512V116.974H427.885V49.2995Z" fill="#F0F3F8"/>
<path d="M31.8454 177.954H11.8998V273.7H31.8454V177.954Z" fill="#F0F3F8"/>
<path d="M244.329 213.732C269.999 213.732 290.809 189.637 290.809 159.914C290.809 130.191 269.999 106.096 244.329 106.096C218.658 106.096 197.848 130.191 197.848 159.914C197.848 189.637 218.658 213.732 244.329 213.732Z" fill="#99AED9"/>
<path d="M243.86 220.092C272.86 220.092 296.369 192.873 296.369 159.297C296.369 125.721 272.86 98.5021 243.86 98.5021C214.861 98.5021 191.352 125.721 191.352 159.297C191.352 192.873 214.861 220.092 243.86 220.092Z" fill="#3E5FAB"/>
<path opacity="0.5" d="M290.813 159.297C290.813 187.721 271.955 211.071 247.929 213.458C246.58 213.594 245.223 213.662 243.864 213.661C234.445 213.661 225.668 210.431 218.313 204.918C217.151 204.055 216.052 203.138 214.979 202.166C209.258 196.998 204.6 190.318 201.449 182.653C198.401 175.13 196.865 167.238 196.904 159.297C196.904 131.968 214.325 109.348 237.004 105.508C239.259 105.126 241.555 104.933 243.856 104.933C248.928 104.944 253.937 105.868 258.541 107.643C259.853 108.146 261.131 108.707 262.37 109.326C271.994 114.109 279.958 122.511 284.979 133.053C288.719 140.828 290.813 149.782 290.813 159.297Z" fill="white"/>
<path opacity="0.39" d="M258.545 107.643L214.983 202.166C209.261 196.998 204.604 190.318 201.453 182.653L237.008 105.508C239.263 105.126 241.559 104.933 243.86 104.933C248.932 104.944 253.941 105.868 258.545 107.643ZM284.983 133.053L247.929 213.458C246.58 213.594 245.223 213.662 243.864 213.661C234.445 213.661 225.668 210.431 218.313 204.918L262.393 109.326C271.998 114.109 279.961 122.511 284.983 133.053Z" fill="white"/>
<path d="M182.417 56.328H52.9718V151.012H182.417V56.328Z" fill="#E8EBF6"/>
<path opacity="0.43" d="M140.133 56.328L104.721 151.012H83.8349L119.251 56.328H140.133Z" fill="white"/>
<path opacity="0.43" d="M182.711 56.328L147.295 151.012H116.045L151.461 56.328H182.711Z" fill="white"/>
<path opacity="0.47" d="M182.413 105.007H52.9679V107.914H182.413V105.007Z" fill="url(#paint0_linear_18_15)"/>
<path opacity="0.47" d="M182.413 84.0737H52.9679V86.9807H182.413V84.0737Z" fill="url(#paint1_linear_18_15)"/>
<path opacity="0.47" d="M182.413 125.941H52.9679V128.848H182.413V125.941Z" fill="url(#paint2_linear_18_15)"/>
<path d="M117.69 56.328V188.451H117.621C116.801 188.459 115.993 188.293 115.271 187.97C112.855 186.885 112.081 184.343 108.446 184.343C103.8 184.343 103.8 188.454 99.1967 188.454C94.5935 188.454 94.5742 184.343 89.9478 184.343C85.3215 184.343 85.3253 188.454 80.7029 188.454C76.0804 188.454 76.0804 184.343 71.4579 184.343C66.8354 184.343 66.8354 188.454 62.2129 188.454C57.5904 188.454 57.5943 184.339 52.9679 184.339V56.328H117.69Z" fill="#A4B5DD"/>
<g opacity="0.47">
<path d="M64.2377 56.328V188.112C63.5964 188.334 62.9072 188.444 62.2129 188.435C60.9077 188.455 59.6452 188.047 58.6977 187.298V56.328H64.2377Z" fill="url(#paint3_linear_18_15)"/>
<path d="M75.5926 56.328V185.964C74.5744 185.102 73.4439 184.349 71.4579 184.349C70.9822 184.345 70.5082 184.395 70.0487 184.498V56.328H75.5926Z" fill="url(#paint4_linear_18_15)"/>
<path d="M86.9436 56.328V185.127C85.1085 186.235 84.1755 188.141 81.4036 188.412V56.328H86.9436Z" fill="url(#paint5_linear_18_15)"/>
<path d="M98.2985 56.328V188.393C95.5885 188.038 94.6826 186.077 92.7585 185.018V56.328H98.2985Z" fill="url(#paint6_linear_18_15)"/>
<path d="M109.653 56.328V184.449C109.257 184.372 108.852 184.336 108.446 184.339C106.328 184.339 105.182 185.202 104.109 186.138V56.328H109.653Z" fill="url(#paint7_linear_18_15)"/>
</g>
<path d="M195.274 49.2995H40.1148V56.328H195.274V49.2995Z" fill="#A4B5DD"/>
<path opacity="0.42" d="M182.413 56.328H52.9679V63.3564H182.413V56.328Z" fill="#3E5FAB"/>
<path d="M144.954 217.491L130.324 233.765L135.28 236.866L149.909 220.592L144.954 217.491Z" fill="#EE9E23"/>
<path d="M133.381 240.884C137.121 240.884 140.152 238.354 140.152 235.234C140.152 232.114 137.121 229.585 133.381 229.585C129.642 229.585 126.61 232.114 126.61 235.234C126.61 238.354 129.642 240.884 133.381 240.884Z" fill="#E77B26"/>
<path d="M133.381 237.712C135.021 237.712 136.351 236.603 136.351 235.234C136.351 233.866 135.021 232.757 133.381 232.757C131.741 232.757 130.412 233.866 130.412 235.234C130.412 236.603 131.741 237.712 133.381 237.712Z" fill="#4E4F50"/>
<path d="M152.591 256.33C152.592 252.405 150.999 248.595 148.074 245.522C145.148 242.449 141.061 240.292 136.479 239.404C139.338 238.849 142.305 238.805 145.187 239.274C148.068 239.743 150.798 240.715 153.197 242.126C155.597 243.537 157.611 245.356 159.109 247.463C160.607 249.569 161.554 251.916 161.888 254.35C162.222 256.783 161.935 259.248 161.047 261.582C160.159 263.917 158.69 266.068 156.735 267.896C154.78 269.723 152.384 271.185 149.704 272.185C147.025 273.186 144.122 273.702 141.186 273.7C139.602 273.702 138.023 273.553 136.479 273.258C141.061 272.37 145.149 270.213 148.075 267.139C151.001 264.065 152.593 260.255 152.591 256.33Z" fill="#787878"/>
<path d="M135.445 273.7C146.944 273.7 156.265 265.923 156.265 256.33C156.265 246.736 146.944 238.959 135.445 238.959C123.946 238.959 114.624 246.736 114.624 256.33C114.624 265.923 123.946 273.7 135.445 273.7Z" fill="#4E4F50"/>
<path d="M135.445 268.323C143.384 268.323 149.819 262.953 149.819 256.33C149.819 249.706 143.384 244.337 135.445 244.337C127.506 244.337 121.07 249.706 121.07 256.33C121.07 262.953 127.506 268.323 135.445 268.323Z" fill="#6B6B6B"/>
<path d="M135.445 261.979C139.184 261.979 142.216 259.45 142.216 256.33C142.216 253.21 139.184 250.68 135.445 250.68C131.705 250.68 128.674 253.21 128.674 256.33C128.674 259.45 131.705 261.979 135.445 261.979Z" stroke="#787878" stroke-miterlimit="10"/>
<path d="M133.176 258.077L109.715 236.982C109.222 236.538 108.93 235.964 108.892 235.36C108.854 234.755 109.071 234.159 109.506 233.674L124.136 217.398L129.092 220.499L116.014 235.034L137.733 254.572L133.176 258.077Z" fill="#F6BE1D"/>
<path d="M159.548 211.197H113.401C112.785 211.197 112.194 210.993 111.758 210.629C111.323 210.266 111.078 209.773 111.078 209.259V206.529H161.871V209.259C161.871 209.773 161.626 210.266 161.191 210.629C160.755 210.993 160.164 211.197 159.548 211.197Z" fill="#4E4F50"/>
<path d="M153.164 210.05V206.533H161.871V210.05C161.871 210.355 161.727 210.647 161.469 210.862C161.211 211.078 160.862 211.199 160.497 211.2H151.79C152.155 211.199 152.504 211.078 152.762 210.862C153.02 210.647 153.164 210.355 153.164 210.05Z" fill="#787878"/>
<path d="M155.166 220.286H117.795C117.179 220.286 116.588 220.082 116.153 219.718C115.717 219.355 115.472 218.862 115.472 218.348V211.2H157.489V218.348C157.489 218.862 157.244 219.355 156.808 219.718C156.373 220.082 155.782 220.286 155.166 220.286Z" fill="#F6BE1D"/>
<path d="M151.775 219.139V211.2H157.477V219.139C157.477 219.444 157.332 219.736 157.075 219.951C156.817 220.167 156.468 220.288 156.103 220.289H150.396C150.762 220.288 151.111 220.167 151.37 219.951C151.628 219.736 151.774 219.444 151.775 219.139Z" fill="#EE9E23"/>
<path d="M112.673 240.884C116.413 240.884 119.444 238.354 119.444 235.234C119.444 232.114 116.413 229.585 112.673 229.585C108.934 229.585 105.902 232.114 105.902 235.234C105.902 238.354 108.934 240.884 112.673 240.884Z" fill="#EE9E23"/>
<path d="M112.673 237.712C114.313 237.712 115.642 236.603 115.642 235.234C115.642 233.866 114.313 232.757 112.673 232.757C111.033 232.757 109.704 233.866 109.704 235.234C109.704 236.603 111.033 237.712 112.673 237.712Z" fill="#4E4F50"/>
<path d="M135.445 261.979C139.184 261.979 142.216 259.45 142.216 256.33C142.216 253.21 139.184 250.68 135.445 250.68C131.705 250.68 128.674 253.21 128.674 256.33C128.674 259.45 131.705 261.979 135.445 261.979Z" fill="#EE9E23"/>
<path d="M135.445 258.807C137.085 258.807 138.414 257.698 138.414 256.33C138.414 254.961 137.085 253.852 135.445 253.852C133.805 253.852 132.475 254.961 132.475 256.33C132.475 257.698 133.805 258.807 135.445 258.807Z" fill="#4E4F50"/>
<path d="M140.153 161.177C140.153 160.492 139.529 160.495 139.521 159.811C139.514 159.126 140.133 159.119 140.125 158.435C140.118 157.75 139.498 157.753 139.494 157.068C139.49 156.384 140.106 156.38 140.098 155.696C140.091 155.011 139.471 155.014 139.463 154.329C139.456 153.645 140.075 153.641 140.071 152.957L132.081 152.918C132.081 153.603 131.469 153.606 131.477 154.291C131.484 154.975 132.104 154.972 132.112 155.657C132.119 156.342 131.5 156.345 131.504 157.03C131.508 157.714 132.131 157.711 132.139 158.396C132.146 159.081 131.527 159.087 131.535 159.772C131.542 160.457 132.162 160.453 132.166 161.138L140.153 161.177Z" fill="#838383"/>
<path d="M132.084 152.911C132.375 153.097 132.678 153.268 132.994 153.422C133.306 153.566 133.633 153.688 133.97 153.787C134.307 153.88 134.651 153.968 135.004 154.045C135.356 154.123 135.712 154.213 136.06 154.278C136.753 154.442 137.47 154.488 138.221 154.711C138.938 154.934 139.579 155.298 140.091 155.773C139.458 155.477 138.783 155.249 138.081 155.095C137.741 155.034 137.392 154.995 137.021 154.956C136.647 154.912 136.276 154.853 135.909 154.778C135.178 154.627 134.465 154.419 133.78 154.155C133.434 154.015 133.111 153.838 132.82 153.628C132.538 153.418 132.29 153.178 132.081 152.915L132.084 152.911ZM140.056 158.17C139.409 157.826 138.72 157.543 138 157.324C137.64 157.233 137.273 157.168 136.901 157.127C136.513 157.072 136.126 157.004 135.739 156.92C134.971 156.746 134.226 156.51 133.513 156.216C132.792 155.906 132.194 155.43 131.79 154.843C132.356 155.276 133.012 155.617 133.726 155.851C134.078 155.957 134.434 156.061 134.806 156.151C135.178 156.242 135.546 156.345 135.909 156.422C136.273 156.5 136.645 156.577 137.024 156.649C137.424 156.712 137.813 156.813 138.186 156.949C138.557 157.087 138.903 157.266 139.216 157.482C139.519 157.691 139.8 157.921 140.056 158.17ZM131.511 157.068C132.084 157.471 132.74 157.783 133.447 157.989C133.799 158.089 134.152 158.186 134.52 158.27C134.887 158.354 135.24 158.457 135.604 158.528C135.967 158.599 136.324 158.674 136.699 158.742C137.092 158.812 137.474 158.921 137.837 159.065C138.55 159.348 139.173 159.766 139.657 160.286C139.035 159.933 138.363 159.648 137.655 159.436C137.308 159.342 136.952 159.274 136.591 159.233C136.204 159.181 135.817 159.119 135.449 159.039C134.697 158.869 133.965 158.645 133.261 158.367C132.539 158.085 131.931 157.634 131.511 157.068Z" fill="#4E4F50"/>
<path d="M149.645 156.248C147.71 155.305 142.177 152.879 135.089 153.758C132.411 154.093 129.835 154.85 127.497 155.99C125.085 149.629 124.294 142.918 125.174 136.287C130.818 134.936 136.97 134.562 145.336 134.578L149.645 156.248Z" fill="#657EBD"/>
<path d="M149.386 156.309C147.45 155.366 141.918 152.941 134.833 153.819C132.155 154.155 129.577 154.913 127.237 156.051C124.825 149.69 124.034 142.979 124.915 136.348C130.563 134.998 136.711 134.623 145.077 134.639L149.386 156.309Z" fill="#FCC01D"/>
<path d="M134.221 152.605C137.217 152.605 139.645 150.579 139.645 148.079C139.645 145.58 137.217 143.554 134.221 143.554C131.226 143.554 128.798 145.58 128.798 148.079C128.798 150.579 131.226 152.605 134.221 152.605Z" fill="#E97B24"/>
<path d="M149.645 156.248L145.41 134.966L145.112 134.584C143.629 134.584 142.216 134.584 140.853 134.62C139.737 135.765 138.504 136.827 137.168 137.795C142.386 142.537 143.428 150.24 143.854 154.216C145.884 154.676 147.831 155.36 149.645 156.248Z" fill="#E97B24"/>
<path d="M138.844 137.395C138.844 137.395 144.028 133.719 144.241 131.4C144.241 131.4 158.271 144.1 150.59 159.297C150.59 159.297 146.134 158.344 145.747 155.744C145.36 153.144 145.139 143.118 138.844 137.395Z" fill="#F2A01E"/>
<path d="M146.157 142.101C147.16 142.101 147.973 141.422 147.973 140.586C147.973 139.749 147.16 139.071 146.157 139.071C145.154 139.071 144.341 139.749 144.341 140.586C144.341 141.422 145.154 142.101 146.157 142.101Z" fill="#30302F"/>
<path d="M136.668 152.02C139.664 152.02 142.092 149.994 142.092 147.495C142.092 144.996 139.664 142.969 136.668 142.969C133.673 142.969 131.244 144.996 131.244 147.495C131.244 149.994 133.673 152.02 136.668 152.02Z" fill="#4E4F50"/>
<path d="M136.668 150.189C138.451 150.189 139.897 148.982 139.897 147.495C139.897 146.007 138.451 144.801 136.668 144.801C134.885 144.801 133.439 146.007 133.439 147.495C133.439 148.982 134.885 150.189 136.668 150.189Z" fill="#30302F"/>
<path d="M95.5614 231.268C95.5614 231.268 96.7228 239.02 102.104 233.497L95.5614 231.268Z" fill="#4E4F50"/>
<path d="M99.278 225.909C100.991 225.909 102.379 224.751 102.379 223.322C102.379 221.893 100.991 220.735 99.278 220.735C97.5653 220.735 96.1769 221.893 96.1769 223.322C96.1769 224.751 97.5653 225.909 99.278 225.909Z" fill="#4E4F50"/>
<path d="M93.5502 227.899L94.407 226.149C94.9315 225.079 95.9441 224.226 97.2222 223.778C98.5003 223.331 99.9392 223.325 101.222 223.763C102.505 224.2 103.528 225.045 104.064 226.111C104.601 227.178 104.607 228.378 104.083 229.449L102.106 233.485L95.1713 231.121C94.4442 230.873 93.8649 230.394 93.5609 229.79C93.2569 229.185 93.2531 228.505 93.5502 227.899Z" fill="#F6BE1D"/>
<path d="M106.835 193.287L113.814 195.229L103.739 220.437C103.43 221.211 102.765 221.851 101.891 222.215C101.016 222.58 100.004 222.64 99.0768 222.382C98.1495 222.124 97.383 221.569 96.9459 220.84C96.5089 220.11 96.437 219.266 96.7462 218.492L106.821 193.283L106.835 193.287Z" fill="#375FAB"/>
<path d="M106.835 193.287L113.814 195.229L103.739 220.437C103.43 221.211 102.765 221.851 101.891 222.215C101.016 222.58 100.004 222.64 99.0768 222.382C98.1495 222.124 97.383 221.569 96.9459 220.84C96.5089 220.11 96.437 219.266 96.7462 218.492L106.821 193.283L106.835 193.287Z" fill="#F6BE1D"/>
<path d="M100.954 222.625L100.215 222.434C102.363 216.675 107.512 203.073 108.844 201.116C109.179 200.582 109.644 200.113 110.211 199.74C110.777 199.366 111.431 199.097 112.131 198.949L112.309 199.578C111.713 199.707 111.157 199.938 110.676 200.258C110.195 200.578 109.8 200.98 109.518 201.436C108.186 203.39 102.631 218.148 100.954 222.625Z" fill="#F8E782"/>
<path d="M127.606 167.858L133.685 171.376L115.44 193.319C114.88 193.992 114.022 194.453 113.055 194.599C112.088 194.744 111.091 194.564 110.284 194.097C109.477 193.629 108.925 192.914 108.75 192.107C108.575 191.3 108.791 190.468 109.352 189.795L127.597 167.852L127.606 167.858Z" fill="#F6BE1D"/>
<path d="M109.138 201.927C113.182 201.927 116.459 199.192 116.459 195.819C116.459 192.445 113.182 189.711 109.138 189.711C105.095 189.711 101.818 192.445 101.818 195.819C101.818 199.192 105.095 201.927 109.138 201.927Z" fill="#4E4F50"/>
<path d="M109.131 199.197C111.38 199.197 113.203 197.676 113.203 195.799C113.203 193.923 111.38 192.401 109.131 192.401C106.881 192.401 105.058 193.923 105.058 195.799C105.058 197.676 106.881 199.197 109.131 199.197Z" fill="#30302F"/>
<path d="M142.34 208.69C142.34 207.521 141.271 207.527 141.26 206.358C141.248 205.189 142.309 205.179 142.297 204.01C142.286 202.841 141.217 202.844 141.217 201.678C141.217 200.512 142.262 200.502 142.251 199.333C142.239 198.164 141.186 198.17 141.175 197.001C141.163 195.832 142.22 195.825 142.208 194.656L128.573 194.582C128.573 195.751 127.528 195.757 127.539 196.927C127.551 198.096 128.608 198.089 128.616 199.259C128.623 200.428 127.57 200.434 127.582 201.604C127.594 202.773 128.65 202.766 128.662 203.936C128.674 205.105 127.613 205.115 127.625 206.284C127.636 207.453 128.693 207.447 128.705 208.619L142.34 208.69Z" fill="#838383"/>
<path d="M128.573 194.582C129.069 194.896 129.586 195.188 130.122 195.454C130.653 195.701 131.211 195.909 131.786 196.074C132.363 196.232 132.948 196.397 133.552 196.516C134.156 196.636 134.76 196.804 135.352 196.917C136.533 197.201 137.764 197.279 139.045 197.653C140.268 198.038 141.362 198.662 142.235 199.472C141.155 198.966 140.003 198.576 138.805 198.312C138.225 198.206 137.624 198.141 136.993 198.077C136.362 198.012 135.724 197.896 135.096 197.773C133.849 197.512 132.633 197.155 131.465 196.707C130.875 196.465 130.323 196.162 129.824 195.806C129.344 195.444 128.921 195.032 128.565 194.582H128.573ZM142.193 203.568C141.088 202.981 139.911 202.496 138.681 202.12C138.068 201.971 137.442 201.863 136.808 201.797C136.149 201.704 135.48 201.588 134.818 201.445C133.508 201.146 132.236 200.741 131.02 200.237C129.788 199.71 128.766 198.895 128.078 197.892C129.037 198.631 130.153 199.214 131.368 199.611C131.968 199.801 132.58 199.976 133.215 200.128C133.85 200.279 134.473 200.451 135.096 200.596C135.72 200.741 136.351 200.861 137.001 200.98C137.681 201.092 138.344 201.264 138.979 201.494C139.611 201.731 140.202 202.037 140.737 202.405C141.262 202.757 141.749 203.146 142.193 203.568ZM127.59 201.681C128.571 202.369 129.694 202.902 130.904 203.254C131.5 203.422 132.108 203.577 132.731 203.735C133.354 203.894 133.958 204.058 134.578 204.178C135.197 204.297 135.813 204.427 136.455 204.543C137.123 204.658 137.772 204.837 138.391 205.076C139.605 205.559 140.666 206.274 141.488 207.163C140.426 206.56 139.278 206.072 138.07 205.709C137.476 205.55 136.867 205.433 136.25 205.36C135.611 205.27 134.953 205.163 134.314 205.037C133.03 204.748 131.778 204.364 130.575 203.891C129.347 203.407 128.311 202.64 127.59 201.681Z" fill="#4E4F50"/>
<path d="M146.61 194.175L125.468 197.473C125.14 197.524 124.801 197.468 124.522 197.317C124.242 197.165 124.043 196.929 123.966 196.659L116.339 170.101C116.293 169.942 116.292 169.775 116.334 169.615C116.376 169.454 116.461 169.304 116.583 169.174L124.609 160.699C124.732 160.57 124.888 160.465 125.067 160.393C125.245 160.322 125.441 160.285 125.639 160.286C128.627 160.308 131.887 160.441 135.375 160.754C139.227 161.096 143.05 161.628 146.827 162.346C147.035 162.384 147.228 162.465 147.389 162.581C147.55 162.698 147.673 162.845 147.748 163.012C152.313 172.83 152.252 183.727 147.578 193.509C147.497 193.679 147.365 193.829 147.196 193.945C147.027 194.062 146.825 194.141 146.61 194.175Z" fill="#F6BE1D"/>
<path d="M119.994 165.848L116.846 169.174C116.724 169.303 116.638 169.454 116.595 169.614C116.552 169.775 116.553 169.941 116.599 170.101L124.225 196.659C124.304 196.929 124.504 197.164 124.784 197.316C125.064 197.467 125.403 197.523 125.731 197.473L146.869 194.175C147.085 194.141 147.288 194.062 147.457 193.946C147.627 193.829 147.759 193.679 147.841 193.509C148.097 192.97 148.36 192.385 148.615 191.762C129.076 186.594 122.158 172.259 119.994 165.848Z" fill="#EE9E23"/>
<path d="M128.078 160.466C128.078 160.466 127.807 161.141 127.446 162.333M125.263 160.286C125.263 160.286 116.44 182.543 130.617 196.707L125.263 160.286Z" stroke="#4E4F50" stroke-width="2" stroke-miterlimit="10"/>
<path d="M126.506 165.977C125.1 172.56 124.183 183.842 131.028 193.109" stroke="#4E4F50" stroke-width="2" stroke-miterlimit="10" stroke-dasharray="11.55 11.55"/>
<path d="M132.266 194.653C132.71 195.174 133.184 195.685 133.687 196.187" stroke="#4E4F50" stroke-width="2" stroke-miterlimit="10"/>
<path d="M141.314 195.37L141.047 192.686C140.927 191.426 141.354 190.172 142.249 189.153C143.145 188.134 144.449 187.417 145.925 187.133L150.826 186.203L150.702 186.694C150.056 189.257 149.127 191.764 147.926 194.184L147.845 194.346L141.314 195.37ZM149.831 187.059L146.111 187.763C144.817 188.013 143.674 188.641 142.889 189.535C142.104 190.428 141.729 191.526 141.833 192.631L142.03 194.601L147.307 193.781C148.369 191.603 149.208 189.355 149.816 187.059H149.831Z" fill="#F8E782"/>
<path d="M125.488 198.138C125.021 198.136 124.569 198.004 124.203 197.763C123.838 197.522 123.58 197.185 123.471 196.807L115.848 170.253C115.773 169.998 115.768 169.733 115.835 169.476C115.903 169.22 116.039 168.98 116.235 168.774L124.256 160.298C124.455 160.095 124.706 159.931 124.991 159.82C125.276 159.708 125.587 159.651 125.902 159.652C129.165 159.675 132.483 159.833 135.712 160.124C139.595 160.475 143.449 161.014 147.257 161.739C147.588 161.801 147.896 161.93 148.152 162.116C148.409 162.301 148.607 162.537 148.728 162.802C153.363 172.771 153.302 183.834 148.557 193.768C148.428 194.04 148.218 194.28 147.947 194.466C147.677 194.652 147.354 194.777 147.009 194.83L125.867 198.128C125.741 198.142 125.614 198.146 125.488 198.138ZM125.875 160.932C125.795 160.932 125.717 160.947 125.646 160.976C125.575 161.005 125.513 161.047 125.464 161.099L117.45 169.575C117.401 169.627 117.367 169.688 117.35 169.753C117.333 169.818 117.335 169.885 117.354 169.95L124.977 196.507C125.01 196.615 125.092 196.709 125.206 196.769C125.32 196.829 125.456 196.851 125.588 196.83L146.726 193.532C146.812 193.517 146.893 193.485 146.96 193.439C147.028 193.392 147.08 193.332 147.113 193.264C151.715 183.628 151.775 172.896 147.28 163.225C147.248 163.156 147.196 163.095 147.129 163.048C147.061 163.001 146.979 162.97 146.893 162.957C143.145 162.245 139.351 161.718 135.53 161.377C132.332 161.09 129.08 160.935 125.851 160.912L125.875 160.932Z" fill="#EE9E23"/>
<path d="M138.546 178.005C142.589 178.005 145.867 175.271 145.867 171.897C145.867 168.524 142.589 165.789 138.546 165.789C134.503 165.789 131.225 168.524 131.225 171.897C131.225 175.271 134.503 178.005 138.546 178.005Z" fill="#30302F"/>
<path d="M212.893 181.545C212.893 181.545 220.105 176.552 219.474 183.664L212.893 181.545Z" fill="#4E4F50"/>
<path d="M206.993 189.788C208.705 189.788 210.094 188.63 210.094 187.201C210.094 185.772 208.705 184.614 206.993 184.614C205.28 184.614 203.892 185.772 203.892 187.201C203.892 188.63 205.28 189.788 206.993 189.788Z" fill="#4E4F50"/>
<path d="M219.5 183.675L217.624 187.745C217.127 188.824 216.136 189.694 214.869 190.164C213.602 190.634 212.164 190.665 210.87 190.25C209.576 189.835 208.533 189.008 207.97 187.951C207.407 186.895 207.37 185.694 207.867 184.615L208.679 182.854C208.961 182.243 209.522 181.749 210.24 181.483C210.958 181.217 211.773 181.2 212.506 181.435L219.498 183.678L219.5 183.675Z" fill="#EE9E23"/>
<path d="M171.755 196.073L170.446 190.034L201.784 185.306C202.746 185.161 203.737 185.34 204.541 185.805C205.344 186.27 205.893 186.982 206.067 187.784C206.241 188.587 206.025 189.414 205.468 190.084C204.911 190.754 204.058 191.212 203.096 191.357L171.758 196.085L171.755 196.073Z" fill="#375FAB"/>
<path d="M171.755 196.073L170.446 190.034L201.784 185.306C202.746 185.161 203.737 185.34 204.541 185.805C205.344 186.27 205.893 186.982 206.067 187.784C206.241 188.587 206.025 189.414 205.468 190.084C204.911 190.754 204.058 191.212 203.096 191.357L171.758 196.085L171.755 196.073Z" fill="#EE9E23"/>
<path d="M179.122 190.851H179.056C178.332 190.865 177.613 190.75 176.946 190.515C176.279 190.28 175.678 189.93 175.185 189.488L175.762 189.055C176.183 189.43 176.694 189.726 177.262 189.924C177.83 190.122 178.441 190.218 179.056 190.205H179.115C181.995 190.205 199.966 187.227 205.44 186.31L205.591 186.956C198.572 188.122 182.003 190.851 179.122 190.851Z" fill="#F8E782"/>
<path d="M137.687 173.713L142.927 169.341L165.561 188.225C165.905 188.512 166.177 188.853 166.364 189.228C166.55 189.603 166.646 190.005 166.646 190.411C166.646 190.817 166.55 191.219 166.364 191.594C166.177 191.969 165.905 192.31 165.561 192.597C165.216 192.884 164.808 193.111 164.359 193.267C163.909 193.422 163.427 193.502 162.941 193.502C162.454 193.502 161.972 193.422 161.523 193.267C161.073 193.111 160.665 192.884 160.321 192.597L137.687 173.713Z" fill="#EE9E23"/>
<path d="M167.38 199.976C171.423 199.976 174.701 197.241 174.701 193.868C174.701 190.495 171.423 187.76 167.38 187.76C163.337 187.76 160.059 190.495 160.059 193.868C160.059 197.241 163.337 199.976 167.38 199.976Z" fill="#4E4F50"/>
<path d="M167.353 197.266C169.602 197.266 171.426 195.744 171.426 193.868C171.426 191.991 169.602 190.47 167.353 190.47C165.104 190.47 163.28 191.991 163.28 193.868C163.28 195.744 165.104 197.266 167.353 197.266Z" fill="#30302F"/>
<path d="M141.047 178.034C145.109 178.034 148.403 175.287 148.403 171.897C148.403 168.508 145.109 165.76 141.047 165.76C136.984 165.76 133.691 168.508 133.691 171.897C133.691 175.287 136.984 178.034 141.047 178.034Z" fill="#4E4F50"/>
<path d="M141.047 175.311C143.307 175.311 145.139 173.783 145.139 171.897C145.139 170.012 143.307 168.483 141.047 168.483C138.787 168.483 136.955 170.012 136.955 171.897C136.955 173.783 138.787 175.311 141.047 175.311Z" fill="#30302F"/>
<path d="M35.984 238.374C35.5968 238.729 35.1826 239.54 34.8225 240.406L34.6251 231.161C35.0725 229.016 35.93 226.943 37.1648 225.024L36.3014 224.601C35.5935 225.673 35.0114 226.799 34.5632 227.964L34.025 201.875C34.3386 200.237 35.0122 198.351 35.531 198.131L35.0781 197.385C34.629 197.576 34.2573 198.089 33.9592 198.71L33.8082 191.523L32.8171 191.539L32.8984 195.292C32.5628 194.599 32.1161 193.947 31.5705 193.354L30.7963 193.897C30.7963 193.897 32.4416 195.564 32.9604 198.684L33.7347 235.929C32.8644 234.057 31.6922 232.294 30.2504 230.687L29.4761 231.207C29.5109 231.245 32.9604 234.921 33.8353 239.223L33.9515 244.618H34.9542L34.9271 243.41C35.3142 241.953 36.1543 239.501 36.7389 238.984L35.984 238.374Z" fill="#A4B5DD"/>
<path d="M8.57426 207.989C8.35359 207.531 9.49566 206.517 11.7837 204.507C13.9826 202.569 15.0783 201.617 16.2784 200.954C17.3856 200.347 19.9021 199.016 23.3438 198.878C25.9144 198.784 25.0936 199.524 31.2918 200.551C32.7513 200.796 34.3541 201.019 35.1439 202.091C35.229 202.208 35.8175 203.012 35.4652 203.706C35.0316 204.556 33.5024 204.569 31.0518 204.979C30.0917 205.141 31.6867 204.911 25.0278 206.452C21.5668 207.256 19.8362 207.657 19.0891 207.792C18.3419 207.928 9.30983 209.537 8.57426 207.989Z" fill="#C4CFE6"/>
<path d="M11.0442 206.72C11.6803 206.342 12.3599 206.017 13.0729 205.751C13.4097 205.622 13.7504 205.496 14.091 205.386C14.4298 205.265 14.781 205.17 15.1402 205.102C15.868 204.969 16.6888 204.944 17.3663 204.688C18.0588 204.415 18.6829 204.035 19.2052 203.568C19.4839 203.338 19.7666 203.102 20.0724 202.892C20.3783 202.684 20.6989 202.491 21.0325 202.314C21.6838 201.939 22.3806 201.622 23.1115 201.368C24.6048 200.876 26.2182 200.691 27.8153 200.828L27.8656 200.984C27.2418 201.383 26.586 201.747 25.9028 202.072C25.2485 202.395 24.5942 202.683 23.9322 202.951C23.2702 203.219 22.5772 203.429 21.892 203.661C21.197 203.912 20.4847 204.128 19.7588 204.307C19.0187 204.503 18.313 204.78 17.6605 205.131C17.014 205.48 16.4371 205.993 15.748 206.339C15.4066 206.509 15.0394 206.641 14.6563 206.73C14.2763 206.826 13.888 206.899 13.4948 206.946C12.6901 207.056 11.8669 207.029 11.0752 206.865L11.0442 206.72Z" fill="#A4B5DD"/>
<path d="M30.2465 231.966C30.7072 231.714 30.2117 230.867 29.3638 227.411C28.3727 223.358 28.6321 222.815 27.6798 221.597C26.7932 220.457 25.6434 219.834 23.3438 218.584C21.3834 217.551 19.3092 216.677 17.1495 215.974C13.3206 214.614 13.4677 215.005 11.4507 214.165C7.0644 212.327 5.25645 210.008 4.38925 210.48C4.00211 210.683 4.06404 211.258 4.54797 213.493C5.34161 217.182 5.74038 219.023 6.15462 219.656C7.5793 221.84 9.937 222.818 13.1232 224.143C17.1456 225.809 17.707 225.112 21.0674 226.488C26.8668 228.82 29.2787 232.499 30.2465 231.966Z" fill="#DDE6F4"/>
<path d="M6.08106 212.763C7.0915 213.345 7.9858 213.962 8.8801 214.572L10.2041 215.483C10.6493 215.783 11.0752 216.1 11.4894 216.433C12.3141 217.104 13.0961 217.867 14.0601 218.419C15.0328 218.969 16.099 219.393 17.223 219.679C17.7805 219.837 18.3535 219.973 18.8994 220.131C19.4452 220.289 19.9911 220.454 20.537 220.609C21.0828 220.764 21.6403 220.909 22.2249 221.097C22.8439 221.292 23.4285 221.556 23.9632 221.882C24.9774 222.534 25.8284 223.346 26.468 224.272C27.1035 225.163 27.5181 226.152 27.6875 227.179L27.5094 227.243C26.8048 226.475 26.0514 225.739 25.2524 225.037C24.4901 224.39 23.6567 223.804 22.763 223.287C22.3329 223.045 21.8827 222.829 21.4158 222.641L19.8362 221.995C19.2895 221.782 18.757 221.545 18.2412 221.284C17.7224 221.026 17.2385 220.729 16.7468 220.444C15.7832 219.854 14.7759 219.314 13.731 218.829C12.6935 218.351 11.532 217.999 10.4984 217.46C9.98397 217.19 9.50399 216.877 9.06593 216.526C8.61948 216.182 8.20047 215.814 7.81159 215.425C7.01801 214.656 6.38226 213.783 5.93007 212.841L6.08106 212.763Z" fill="#A4B5DD"/>
<path d="M35.8678 239.87C34.8613 239.585 35.7594 235.348 36.1892 233.306C36.9247 229.811 37.2964 228.064 38.7559 226.475C41.0517 223.981 44.4121 223.125 45.98 222.725C48.9184 221.975 49.3365 222.612 53.1267 221.788C56.9981 220.945 58.6086 219.85 59.228 220.38C59.9442 221.026 58.5699 223.248 57.06 224.734C55.5502 226.22 54.0635 226.827 50.8657 228.287C46.944 230.083 44.9812 230.981 44.203 231.433C38.2062 234.947 36.9867 240.186 35.8678 239.87Z" fill="#C4CFE6"/>
<path d="M36.6537 237.253C36.3858 236.373 36.3072 235.46 36.4214 234.556C36.4524 234.33 36.4911 234.107 36.5337 233.881C36.5763 233.655 36.6421 233.435 36.7118 233.216C36.7815 232.996 36.8628 232.776 36.9557 232.57C37.0486 232.363 37.1802 232.147 37.308 231.943C37.8973 231.167 38.5881 230.447 39.3676 229.798C39.7276 229.475 40.0877 229.152 40.4632 228.829C40.8414 228.496 41.2421 228.181 41.6634 227.886C42.4759 227.318 43.3449 226.807 44.2611 226.362C45.1438 225.903 46.0226 225.448 46.944 225.053C47.8689 224.657 48.8188 224.302 49.7895 223.991C50.779 223.666 51.7978 223.407 52.8363 223.216L52.9331 223.355C52.191 223.991 51.3883 224.577 50.5328 225.105C49.6958 225.632 48.8261 226.121 47.9273 226.572C47.0159 226.998 46.0747 227.379 45.1089 227.712C44.6289 227.886 44.1565 228.067 43.6649 228.212C43.1732 228.358 42.6815 228.497 42.2092 228.645C41.2582 228.927 40.4357 229.449 39.8554 230.138C39.2708 230.832 39.054 231.691 38.7985 232.476C38.7404 232.676 38.6669 232.873 38.5933 233.067C38.5198 233.261 38.4423 233.455 38.361 233.649L37.9003 234.821C37.6017 235.654 37.2502 236.474 36.8473 237.276L36.6537 237.253Z" fill="#A4B5DD"/>
<path d="M36.1001 225.225C35.713 225.018 35.2987 224.488 36.3401 218.929C37.0757 215.024 37.4396 213.07 38.0281 211.962C39.4683 209.243 41.5859 207.763 45.8135 204.798C47.8422 203.377 53.0337 199.74 54.0829 200.512C54.9075 201.116 52.8286 204.194 52.2362 205.066C50.1186 208.193 48.9068 208.044 47.6602 210.357C46.3633 212.767 47.455 213.348 46.0536 216.92C45.5387 218.235 44.8921 219.885 43.3242 221.542C41.2336 223.778 37.5364 226.01 36.1001 225.225Z" fill="#DDE6F4"/>
<path d="M38.0939 222.253C38.1011 221.239 38.2717 220.231 38.6011 219.256C38.7598 218.771 38.9417 218.287 39.1508 217.828C39.3578 217.353 39.617 216.894 39.9251 216.458C40.2348 216.016 40.5987 215.625 40.9162 215.221C41.5803 214.412 42.0534 213.504 42.3099 212.547C42.4454 212.069 42.5035 211.578 42.5925 211.077C42.6727 210.541 42.8434 210.017 43.0997 209.52C43.2277 209.271 43.3778 209.031 43.5487 208.8C43.7299 208.562 43.9318 208.335 44.1527 208.122C44.5863 207.702 45.0083 207.356 45.4264 207.011C45.8445 206.665 46.2665 206.336 46.7001 206.009C47.5673 205.363 48.459 204.732 49.3752 204.117C50.2986 203.482 51.2599 202.887 52.2556 202.334L52.4027 202.44C51.8542 203.341 51.2061 204.198 50.467 204.998C49.7471 205.798 48.9592 206.554 48.1093 207.259C47.6834 207.608 47.2382 207.947 46.7775 208.261C46.3168 208.574 45.8522 208.881 45.469 209.172C45.2784 209.313 45.0998 209.465 44.9347 209.627C44.7682 209.792 44.6056 209.976 44.4392 210.153C44.1079 210.515 43.8261 210.906 43.5991 211.32C43.1139 212.228 42.6937 213.16 42.3409 214.11C42.1628 214.585 42.035 215.079 41.884 215.57C41.733 216.061 41.5666 216.562 41.3807 217.014C41.1983 217.472 40.9877 217.921 40.7497 218.361C40.5174 218.807 40.2696 219.246 40.018 219.685C39.5116 220.588 38.9308 221.46 38.2797 222.295L38.0939 222.253Z" fill="#A4B5DD"/>
<path d="M33.1385 191.794C32.0467 191.487 32.1706 188.519 32.2558 186.436C32.31 185.063 32.4881 184.368 32.4145 182.686C32.3746 181.743 32.2673 180.804 32.0932 179.872C31.6364 177.479 30.9085 176.539 30.4904 175.182C29.6813 172.582 30.564 170.315 31.8532 167.014C33.2004 163.561 34.3115 163.231 34.5012 160.651C34.5864 159.497 34.478 158.015 35.1439 157.837C35.5775 157.721 36.1504 158.199 36.5879 158.641C41.1988 163.247 42.0466 171.096 42.0466 171.096C42.3254 173.68 42.4802 175.102 41.9692 177.059C41.4814 178.923 40.9123 179.262 39.4799 182.873C38.3726 185.677 38.5507 185.88 37.7919 187.227C36.584 189.388 34.2922 192.117 33.1385 191.794ZM16.681 167.75C17.0217 167.556 17.7495 167.986 18.9303 168.687C21.3335 170.116 23.1536 172.126 24.1451 174.446C24.4781 175.257 24.4084 175.399 25.0278 177.999C25.415 179.598 25.6085 180.405 25.8331 180.812C26.4835 182.001 27.1029 182.143 28.5431 183.693C29.5574 184.769 30.382 185.631 30.9511 186.907C31.3383 187.741 31.1911 187.857 31.6751 191.461C31.9693 193.668 32.0854 194.107 31.737 194.32C30.6724 194.966 27.13 192.324 26.7042 191.998C24.6988 190.496 20.897 187.644 19.4801 182.821C18.3186 178.813 20.2118 178.257 18.7561 173.713C17.765 170.573 15.9958 168.141 16.681 167.75Z" fill="#DDE6F4"/>
<path d="M20.324 170.867C21.1725 171.678 21.8093 172.627 22.1939 173.654C22.3978 174.167 22.5456 174.693 22.6353 175.227C22.7356 175.762 22.7499 176.305 22.6779 176.842C22.6082 177.366 22.4959 177.85 22.4301 178.351C22.3643 178.853 22.3643 179.36 22.4301 179.863C22.5762 180.87 22.9478 181.845 23.5257 182.737C23.7967 183.189 24.1142 183.625 24.3929 184.087C24.6717 184.549 24.931 184.985 25.2137 185.412C25.4908 185.828 25.7972 186.23 26.1312 186.616C26.4719 187.001 26.8048 187.376 27.1687 187.721C27.5326 188.067 27.943 188.445 28.3611 188.845C28.7792 189.246 29.1586 189.659 29.5226 190.085C29.7084 190.295 29.8787 190.515 30.0452 190.731C30.2117 190.948 30.3743 191.18 30.5291 191.407C30.8466 191.862 31.1447 192.324 31.4079 192.805L31.2531 192.905C30.2546 192.293 29.2993 191.633 28.3921 190.929L27.01 189.95C26.5246 189.613 26.0607 189.255 25.6202 188.877C25.1628 188.47 24.7615 188.022 24.4239 187.54C24.0856 187.068 23.7918 186.574 23.5451 186.064C23.0781 185.083 22.7305 184.064 22.5075 183.025C22.2714 181.981 22.0701 180.961 21.7991 179.947C21.6713 179.436 21.501 178.926 21.3655 178.403C21.2302 177.886 21.1307 177.363 21.0674 176.836C21.0093 176.335 20.9744 175.867 20.928 175.386C20.8815 174.904 20.8118 174.417 20.7305 173.935C20.5718 172.966 20.3434 171.998 20.1537 170.932L20.324 170.867ZM35.7981 159.685C36.2107 160.234 36.5385 160.824 36.7737 161.442C37.0243 162.063 37.1879 162.705 37.2615 163.357C37.3029 163.69 37.3172 164.024 37.3041 164.359C37.3041 164.682 37.2732 165.005 37.2499 165.295C37.2112 165.909 37.157 166.519 37.0564 167.136C36.855 168.377 36.464 169.578 36.5802 170.806C36.6963 172.033 37.2538 173.199 37.5596 174.468C37.7296 175.094 37.8589 175.727 37.9468 176.364C38.0268 177.008 38.0578 177.655 38.0397 178.302C38.0437 179.61 37.7993 180.909 37.3157 182.153C36.8783 183.341 36.4098 184.504 35.9453 185.686C35.4928 186.884 34.9603 188.059 34.3502 189.207L34.1605 189.175C34.1726 187.91 34.2721 186.647 34.4586 185.392C34.5399 184.766 34.6832 184.146 34.8225 183.525C34.9619 182.905 35.14 182.292 35.3258 181.687C35.5117 181.083 35.713 180.509 35.8717 179.953C36.0238 179.377 36.1388 178.795 36.2163 178.209C36.2976 177.611 36.344 177.01 36.3905 176.403C36.4369 175.796 36.495 175.185 36.4989 174.572C36.5159 173.958 36.4654 173.344 36.3479 172.737C36.224 172.13 36.0653 171.503 35.9607 170.873C35.6971 169.618 35.5264 168.351 35.4497 167.078C35.424 166.449 35.4525 165.818 35.5349 165.192C35.5736 164.869 35.6278 164.562 35.6665 164.268C35.7052 163.974 35.7401 163.7 35.7594 163.402C35.7943 162.811 35.7865 162.214 35.7594 161.607C35.7323 160.999 35.6626 160.386 35.6123 159.746L35.7981 159.685Z" fill="#A4B5DD"/>
<path d="M35.14 197.883C33.9786 196.449 36.584 193.49 37.308 192.657C38.6822 191.019 40.6112 189.76 42.848 189.042C43.7888 188.758 45.2676 188.629 48.2254 188.37C50.8309 188.144 50.8619 188.228 53.1228 188.047C57.1181 187.724 59.1119 187.54 60.5095 187.243C61.6012 187.011 63.6995 186.5 65.4068 187.107C65.8482 187.266 66.0959 187.43 66.1269 187.644C66.1927 188.076 65.2791 188.487 64.1912 188.984C64.1912 188.984 62.2323 189.888 60.2578 190.861C58.9156 191.458 57.6738 192.201 56.5645 193.07C55.1127 194.255 55.2676 194.669 53.8351 195.748C52.8801 196.465 51.7957 197.052 50.6218 197.489C48.628 198.209 47.064 198.106 44.6018 198.093C37.4164 198.044 35.8911 198.826 35.14 197.883Z" fill="#DDE6F4"/>
<path d="M35.8794 196.613C36.5945 195.762 37.5051 195.037 38.5585 194.482C39.0804 194.198 39.6294 193.95 40.2 193.742C40.7661 193.527 41.3597 193.367 41.9692 193.264C43.1906 193.121 44.4215 193.041 45.6548 193.025C46.2626 192.989 46.882 192.986 47.4473 192.921C48.0091 192.841 48.5567 192.702 49.0771 192.508C49.6114 192.321 50.1263 192.091 50.6257 191.862C51.1251 191.633 51.6516 191.436 52.1472 191.216C52.6427 190.996 53.1267 190.738 53.5796 190.483C54.0326 190.228 54.4855 189.947 55.0082 189.659C56.0669 189.078 57.2301 188.642 58.4537 188.367C59.6543 188.093 60.9021 187.993 62.1432 188.07L62.1781 188.228C61.0747 188.677 60.0139 189.084 59.0151 189.549C58.0305 190.005 57.0814 190.512 56.1735 191.067C55.6778 191.373 55.1607 191.653 54.6249 191.907C54.0733 192.163 53.5016 192.388 52.9137 192.579C52.3402 192.779 51.7503 192.944 51.1484 193.073C50.5433 193.197 49.9289 193.286 49.3094 193.341C48.69 193.396 48.0706 193.432 47.4473 193.441C46.8559 193.424 46.264 193.45 45.678 193.519C44.5166 193.684 43.4481 194.165 42.3989 194.527C41.8685 194.717 41.3382 194.889 40.8039 195.047C40.2696 195.205 39.7509 195.386 39.2205 195.57C38.1558 195.932 37.1067 196.339 35.953 196.717L35.8794 196.613Z" fill="#A4B5DD"/>
<path d="M49.9443 273.701H18.578L15.2176 261.908L25.3027 241.229H43.2197L53.3047 261.908L49.9443 273.701Z" fill="#B2C2E3"/>
<path opacity="0.47" d="M43.2197 241.229H34.2612V273.701H49.9443L53.3047 261.908L43.2197 241.229Z" fill="url(#paint8_linear_18_15)"/>
<path d="M50.045 273.701H18.4929L34.2612 261.178L50.045 273.701Z" fill="url(#paint9_linear_18_15)"/>
<path d="M217.376 273.701H188.685C188.403 273.703 188.131 273.62 187.917 273.467C187.704 273.315 187.564 273.103 187.523 272.87L182.103 239.576C182.083 239.44 182.097 239.302 182.145 239.172C182.194 239.041 182.274 238.921 182.382 238.818C182.49 238.715 182.622 238.632 182.771 238.575C182.92 238.518 183.082 238.488 183.245 238.487H222.815C222.979 238.489 223.14 238.519 223.288 238.576C223.436 238.634 223.569 238.716 223.676 238.819C223.784 238.922 223.864 239.042 223.912 239.173C223.959 239.303 223.974 239.44 223.953 239.576L218.514 272.87C218.474 273.099 218.338 273.309 218.129 273.461C217.92 273.613 217.653 273.698 217.376 273.701Z" fill="#A8B9DF"/>
<path d="M221.069 236.216H221.929C222.164 236.216 222.389 236.294 222.556 236.433C222.722 236.572 222.815 236.76 222.815 236.956V238.487H220.194V236.956C220.194 236.762 220.286 236.575 220.45 236.436C220.614 236.298 220.836 236.219 221.069 236.216ZM184.635 236.216H185.495C185.73 236.216 185.955 236.294 186.122 236.433C186.288 236.572 186.381 236.76 186.381 236.956V238.487H183.753V236.956C183.753 236.76 183.846 236.572 184.012 236.433C184.178 236.294 184.404 236.216 184.639 236.216H184.635Z" fill="#336297"/>
<path opacity="0.47" d="M193.838 247.948C193.848 244.599 194.987 241.321 197.124 238.487H183.245C183.082 238.488 182.92 238.518 182.771 238.575C182.622 238.632 182.49 238.715 182.382 238.818C182.274 238.921 182.194 239.041 182.145 239.172C182.097 239.302 182.083 239.44 182.103 239.576L187.523 272.87C187.564 273.103 187.704 273.315 187.917 273.467C188.131 273.62 188.403 273.703 188.685 273.701H217.376C217.653 273.698 217.92 273.613 218.129 273.461C218.338 273.309 218.474 273.099 218.514 272.87L219.335 267.857C205.096 267.089 193.838 258.471 193.838 247.948Z" fill="url(#paint10_linear_18_15)"/>
<path d="M182.769 243.161C181.612 243.928 180.511 244.752 179.471 245.629C178.428 246.492 177.518 247.459 176.761 248.51C176.397 249.02 176.099 249.561 175.874 250.125C175.671 250.677 175.596 251.257 175.654 251.833C175.72 252.393 175.971 252.926 176.377 253.374C176.799 253.823 177.326 254.194 177.926 254.466C178.537 254.747 179.187 254.964 179.862 255.112C180.55 255.276 181.253 255.395 181.964 255.467C183.403 255.617 184.856 255.66 186.304 255.593C189.225 255.464 192.124 255.09 194.956 254.479C197.805 253.892 200.599 253.136 203.319 252.218C206.058 251.319 208.721 250.265 211.29 249.065C213.862 247.886 216.259 246.459 218.433 244.815C219.519 243.997 220.451 243.048 221.197 241.998C221.564 241.47 221.825 240.897 221.971 240.299C222.116 239.696 222.073 239.072 221.847 238.487C222.127 239.065 222.224 239.694 222.13 240.312C222.029 240.937 221.807 241.543 221.472 242.108C220.781 243.224 219.892 244.246 218.835 245.141C216.716 246.908 214.335 248.443 211.751 249.708C209.189 250.991 206.517 252.114 203.756 253.067C200.991 254.029 198.144 254.819 195.239 255.432C192.324 256.049 189.34 256.414 186.335 256.52C184.822 256.568 183.307 256.501 181.809 256.32C181.051 256.229 180.303 256.089 179.571 255.9C178.825 255.715 178.11 255.452 177.442 255.118C176.749 254.781 176.147 254.328 175.673 253.788C175.198 253.232 174.92 252.576 174.871 251.895C174.837 251.236 174.954 250.579 175.216 249.957C175.484 249.358 175.832 248.787 176.254 248.255C177.097 247.218 178.092 246.273 179.215 245.441C180.328 244.606 181.516 243.844 182.769 243.161Z" fill="#336297"/>
<path d="M225.01 238.487H181.046C180.213 238.487 179.537 239.051 179.537 239.747C179.537 240.442 180.213 241.006 181.046 241.006H225.01C225.844 241.006 226.52 240.442 226.52 239.747C226.52 239.051 225.844 238.487 225.01 238.487Z" fill="#C4CFE6"/>
<path d="M426.727 169.546H345.168C344.526 169.546 344.006 169.98 344.006 170.515V266.759C344.006 267.294 344.526 267.728 345.168 267.728H426.727C427.369 267.728 427.889 267.294 427.889 266.759V170.515C427.889 169.98 427.369 169.546 426.727 169.546Z" fill="#A7B8DE"/>
<path d="M416.162 170.515V266.769C416.162 267.026 416.04 267.273 415.822 267.454C415.604 267.636 415.309 267.738 415.001 267.738H334.475C334.167 267.738 333.872 267.636 333.654 267.454C333.436 267.273 333.314 267.026 333.314 266.769V170.515C333.314 170.258 333.436 170.012 333.654 169.83C333.872 169.648 334.167 169.546 334.475 169.546H415.001C415.309 169.546 415.604 169.648 415.822 169.83C416.04 170.012 416.162 170.258 416.162 170.515Z" fill="#E6EAF5"/>
<path d="M406.305 222.657H344.227C343.586 222.657 343.066 223.091 343.066 223.626V236.404C343.066 236.939 343.586 237.373 344.227 237.373H406.305C406.947 237.373 407.467 236.939 407.467 236.404V223.626C407.467 223.091 406.947 222.657 406.305 222.657Z" fill="#C4CEE5"/>
<path d="M406.305 243.726H344.227C343.586 243.726 343.066 244.16 343.066 244.695V257.473C343.066 258.008 343.586 258.442 344.227 258.442H406.305C406.947 258.442 407.467 258.008 407.467 257.473V244.695C407.467 244.16 406.947 243.726 406.305 243.726Z" fill="#C4CEE5"/>
<path d="M406.305 201.591H344.227C343.586 201.591 343.066 202.025 343.066 202.56V215.338C343.066 215.873 343.586 216.307 344.227 216.307H406.305C406.947 216.307 407.467 215.873 407.467 215.338V202.56C407.467 202.025 406.947 201.591 406.305 201.591Z" fill="#C4CEE5"/>
<path d="M385.984 216.307H364.548C364.548 215.321 365.017 214.377 365.852 213.68C366.687 212.983 367.82 212.592 369 212.592H381.536C382.717 212.592 383.849 212.983 384.684 213.68C385.519 214.377 385.988 215.321 385.988 216.307H385.984Z" fill="#E6EAF5"/>
<path d="M406.305 179.498H344.227C343.586 179.498 343.066 179.931 343.066 180.467V193.244C343.066 193.78 343.586 194.213 344.227 194.213H406.305C406.947 194.213 407.467 193.78 407.467 193.244V180.467C407.467 179.931 406.947 179.498 406.305 179.498Z" fill="#C4CEE5"/>
<path d="M385.984 194.213H364.548C364.548 193.228 365.017 192.283 365.852 191.587C366.687 190.89 367.82 190.499 369 190.499H381.536C382.717 190.499 383.849 190.89 384.684 191.587C385.519 192.283 385.988 193.228 385.988 194.213H385.984Z" fill="#E6EAF5"/>
<path d="M385.984 237.373H364.548C364.548 236.388 365.017 235.443 365.852 234.746C366.687 234.05 367.82 233.658 369 233.658H381.536C382.717 233.658 383.849 234.05 384.684 234.746C385.519 235.443 385.988 236.388 385.988 237.373H385.984Z" fill="#E6EAF5"/>
<path d="M385.984 258.442H364.548C364.548 257.457 365.017 256.512 365.852 255.815C366.687 255.119 367.82 254.727 369 254.727H381.536C382.717 254.727 383.849 255.119 384.684 255.815C385.519 256.512 385.988 257.457 385.988 258.442H385.984Z" fill="#E6EAF5"/>
<path d="M339.821 273.701H337.824C337.687 273.701 337.551 273.679 337.425 273.635C337.298 273.592 337.183 273.528 337.086 273.447C336.989 273.366 336.913 273.27 336.861 273.165C336.808 273.059 336.782 272.946 336.782 272.832V267.728H343.941L340.758 273.219C340.672 273.364 340.538 273.486 340.372 273.572C340.207 273.657 340.016 273.701 339.821 273.701Z" fill="#C4CEE5"/>
<path d="M351.571 273.701H349.574C349.437 273.701 349.301 273.679 349.174 273.635C349.048 273.592 348.933 273.528 348.836 273.447C348.739 273.366 348.663 273.27 348.61 273.165C348.558 273.059 348.532 272.946 348.532 272.832V267.728H355.694L352.512 273.219C352.425 273.365 352.291 273.487 352.124 273.572C351.958 273.657 351.766 273.702 351.571 273.701Z" fill="#A7B8DE"/>
<path d="M411.586 273.701H413.588C413.724 273.701 413.86 273.678 413.986 273.634C414.113 273.591 414.227 273.527 414.324 273.446C414.421 273.365 414.497 273.27 414.55 273.164C414.602 273.059 414.629 272.946 414.629 272.832V267.728H407.467L410.653 273.219C410.738 273.365 410.871 273.487 411.036 273.572C411.201 273.657 411.392 273.702 411.586 273.701Z" fill="#C4CEE5"/>
<path d="M423.402 273.701H425.403C425.54 273.701 425.675 273.678 425.801 273.634C425.927 273.591 426.042 273.527 426.138 273.446C426.235 273.365 426.311 273.269 426.363 273.164C426.415 273.059 426.441 272.946 426.441 272.832V267.728H419.283L422.465 273.219C422.552 273.364 422.685 273.486 422.851 273.572C423.016 273.657 423.207 273.701 423.402 273.701Z" fill="#A7B8DE"/>
<path opacity="0.42" d="M378.272 169.546L356.434 267.728H339.136L360.979 169.546H378.272Z" fill="#F2F6FB"/>
<path opacity="0.42" d="M415.45 169.62L393.634 267.728H365.373L387.212 169.536H415.005C415.158 169.539 415.309 169.568 415.45 169.62Z" fill="#F2F6FB"/>
<path d="M400.858 95.5789V138.163H319.098L319.105 95.5789H400.858Z" fill="#E7EBF6"/>
<path opacity="0.47" d="M403.235 140.612H316.473V93.347H403.235V140.612ZM319.183 138.351L400.87 138.163V95.5789L319.183 95.6015V138.351Z" fill="url(#paint11_linear_18_15)"/>
<path opacity="0.47" d="M400.858 95.5789V138.163H319.098L319.105 95.5789H400.858Z" fill="url(#paint12_linear_18_15)"/>
<path opacity="0.47" d="M361.482 128.677H396.801V123.783H361.482V128.677Z" fill="url(#paint13_linear_18_15)"/>
<path opacity="0.47" d="M378.11 136.138H396.801V131.245H378.11V136.138Z" fill="url(#paint14_linear_18_15)"/>
<path opacity="0.47" d="M359.709 102.262H324.39V107.155H359.709V102.262Z" fill="url(#paint15_linear_18_15)"/>
<path opacity="0.47" d="M343.081 109.723H324.39V114.617H343.081V109.723Z" fill="url(#paint16_linear_18_15)"/>
<path opacity="0.43" d="M357.514 95.5789L342.992 138.163H330.503L345.025 95.5789H357.514Z" fill="white"/>
<path opacity="0.43" d="M381.85 95.5789L367.328 138.163H348.915L363.437 95.5789H381.85Z" fill="white"/>
<path d="M201.244 186.306C201.116 186.203 201.033 186.066 201.008 185.919C200.984 185.771 201.019 185.621 201.108 185.492C203.319 182.324 217.155 162.899 222.676 166.006C228.386 169.22 231.313 186.565 230.353 193.419C230.337 193.526 230.291 193.628 230.218 193.717C230.145 193.805 230.047 193.878 229.933 193.928C229.819 193.979 229.692 194.005 229.563 194.006C229.434 194.007 229.306 193.982 229.191 193.932C227.728 193.286 224.979 192.082 223.164 191.671C223.011 191.637 222.875 191.565 222.771 191.465C222.668 191.366 222.602 191.243 222.583 191.112C222.563 190.981 222.591 190.848 222.662 190.731C222.733 190.613 222.844 190.515 222.982 190.45H223.009C223.961 190.034 220.07 188.777 219.354 189.427C218.638 190.076 220.55 190.741 220.202 191.245C219.854 191.749 215.808 192.346 214.302 190.073C214.227 189.955 214.197 189.822 214.214 189.69C214.231 189.558 214.296 189.434 214.399 189.333C215.336 188.399 217.883 185.686 216.749 184.956C215.367 184.065 208.479 182.718 209.037 183.864C209.594 185.011 211.278 186.384 208.677 187.343C207.458 187.82 206.094 187.977 204.767 187.791C203.439 187.606 202.21 187.088 201.244 186.306Z" fill="#EE465E"/>
<path d="M217.035 171.484C215.719 173.516 214.437 175.567 213.214 177.637C212.606 178.674 212.006 179.711 211.456 180.767C211.313 181.029 211.185 181.293 211.069 181.555C210.953 181.817 210.81 182.082 210.682 182.346C210.554 182.611 210.446 182.879 210.357 183.141C210.318 183.235 210.287 183.328 210.26 183.416C209.641 183.393 209.192 183.441 209.045 183.6L209.137 183.293C209.188 183.143 209.251 182.996 209.327 182.854C209.451 182.563 209.59 182.292 209.741 182.023C209.892 181.755 210.04 181.49 210.198 181.229C210.357 180.967 210.508 180.706 210.671 180.45C211.317 179.42 212.006 178.409 212.703 177.408C214.097 175.405 215.549 173.451 217.035 171.484ZM216.993 185.312C216.967 185.165 216.872 185.032 216.729 184.943C216.53 184.817 216.316 184.709 216.091 184.62L219.888 175.253L216.993 185.312ZM220.368 189.246C220.192 189.211 220.008 189.207 219.83 189.236C219.652 189.265 219.483 189.326 219.335 189.414C219.252 189.483 219.198 189.572 219.18 189.669H219.114L221.929 180.925L220.368 189.246ZM222.064 189.617L223.419 177.773L223.137 190.247C223.086 190.053 222.637 189.814 222.064 189.617ZM223.133 190.473H222.939H222.966H222.993C223.056 190.452 223.108 190.411 223.137 190.36L223.133 190.473Z" fill="#C33D56"/>
</g>
<defs>
<linearGradient id="paint0_linear_18_15" x1="117.694" y1="106.461" x2="247.139" y2="106.461" gradientUnits="userSpaceOnUse">
<stop stop-color="#5559FE" stop-opacity="0.31"/>
<stop offset="0.06" stop-color="#5665EF" stop-opacity="0.49"/>
<stop offset="0.13" stop-color="#566EE1" stop-opacity="0.65"/>
<stop offset="0.21" stop-color="#5776D6" stop-opacity="0.78"/>
<stop offset="0.3" stop-color="#577DCD" stop-opacity="0.88"/>
<stop offset="0.41" stop-color="#5881C7" stop-opacity="0.95"/>
<stop offset="0.57" stop-color="#5883C4" stop-opacity="0.99"/>
<stop offset="1" stop-color="#5884C3"/>
</linearGradient>
<linearGradient id="paint1_linear_18_15" x1="117.694" y1="85.5272" x2="247.139" y2="85.5272" gradientUnits="userSpaceOnUse">
<stop stop-color="#5559FE" stop-opacity="0.31"/>
<stop offset="0.06" stop-color="#5665EF" stop-opacity="0.49"/>
<stop offset="0.13" stop-color="#566EE1" stop-opacity="0.65"/>
<stop offset="0.21" stop-color="#5776D6" stop-opacity="0.78"/>
<stop offset="0.3" stop-color="#577DCD" stop-opacity="0.88"/>
<stop offset="0.41" stop-color="#5881C7" stop-opacity="0.95"/>
<stop offset="0.57" stop-color="#5883C4" stop-opacity="0.99"/>
<stop offset="1" stop-color="#5884C3"/>
</linearGradient>
<linearGradient id="paint2_linear_18_15" x1="117.694" y1="127.394" x2="247.139" y2="127.394" gradientUnits="userSpaceOnUse">
<stop stop-color="#5559FE" stop-opacity="0.31"/>
<stop offset="0.06" stop-color="#5665EF" stop-opacity="0.49"/>
<stop offset="0.13" stop-color="#566EE1" stop-opacity="0.65"/>
<stop offset="0.21" stop-color="#5776D6" stop-opacity="0.78"/>
<stop offset="0.3" stop-color="#577DCD" stop-opacity="0.88"/>
<stop offset="0.41" stop-color="#5881C7" stop-opacity="0.95"/>
<stop offset="0.57" stop-color="#5883C4" stop-opacity="0.99"/>
<stop offset="1" stop-color="#5884C3"/>
</linearGradient>
<linearGradient id="paint3_linear_18_15" x1="58.6977" y1="122.388" x2="64.2377" y2="122.388" gradientUnits="userSpaceOnUse">
<stop stop-color="#5884C3" stop-opacity="0.5"/>
<stop offset="0.04" stop-color="#5680C0" stop-opacity="0.54"/>
<stop offset="0.28" stop-color="#4C6FB5" stop-opacity="0.74"/>
<stop offset="0.51" stop-color="#4562AD" stop-opacity="0.89"/>
<stop offset="0.75" stop-color="#415AA8" stop-opacity="0.97"/>
<stop offset="1" stop-color="#4058A6"/>
</linearGradient>
<linearGradient id="paint4_linear_18_15" x1="70.0487" y1="121.144" x2="75.5926" y2="121.144" gradientUnits="userSpaceOnUse">
<stop stop-color="#5884C3" stop-opacity="0.5"/>
<stop offset="0.04" stop-color="#5680C0" stop-opacity="0.54"/>
<stop offset="0.28" stop-color="#4C6FB5" stop-opacity="0.74"/>
<stop offset="0.51" stop-color="#4562AD" stop-opacity="0.89"/>
<stop offset="0.75" stop-color="#415AA8" stop-opacity="0.97"/>
<stop offset="1" stop-color="#4058A6"/>
</linearGradient>
<linearGradient id="paint5_linear_18_15" x1="81.4036" y1="122.372" x2="86.9436" y2="122.372" gradientUnits="userSpaceOnUse">
<stop stop-color="#5884C3" stop-opacity="0.5"/>
<stop offset="0.04" stop-color="#5680C0" stop-opacity="0.54"/>
<stop offset="0.28" stop-color="#4C6FB5" stop-opacity="0.74"/>
<stop offset="0.51" stop-color="#4562AD" stop-opacity="0.89"/>
<stop offset="0.75" stop-color="#415AA8" stop-opacity="0.97"/>
<stop offset="1" stop-color="#4058A6"/>
</linearGradient>
<linearGradient id="paint6_linear_18_15" x1="92.7585" y1="122.359" x2="98.2985" y2="122.359" gradientUnits="userSpaceOnUse">
<stop stop-color="#5884C3" stop-opacity="0.5"/>
<stop offset="0.04" stop-color="#5680C0" stop-opacity="0.54"/>
<stop offset="0.28" stop-color="#4C6FB5" stop-opacity="0.74"/>
<stop offset="0.51" stop-color="#4562AD" stop-opacity="0.89"/>
<stop offset="0.75" stop-color="#415AA8" stop-opacity="0.97"/>
<stop offset="1" stop-color="#4058A6"/>
</linearGradient>
<linearGradient id="paint7_linear_18_15" x1="104.109" y1="121.232" x2="109.653" y2="121.232" gradientUnits="userSpaceOnUse">
<stop stop-color="#5884C3" stop-opacity="0.5"/>
<stop offset="0.04" stop-color="#5680C0" stop-opacity="0.54"/>
<stop offset="0.28" stop-color="#4C6FB5" stop-opacity="0.74"/>
<stop offset="0.51" stop-color="#4562AD" stop-opacity="0.89"/>
<stop offset="0.75" stop-color="#415AA8" stop-opacity="0.97"/>
<stop offset="1" stop-color="#4058A6"/>
</linearGradient>
<linearGradient id="paint8_linear_18_15" x1="34.2612" y1="257.467" x2="53.3047" y2="257.467" gradientUnits="userSpaceOnUse">
<stop stop-color="#5884C3"/>
<stop offset="0.15" stop-color="#5B86C4" stop-opacity="0.98"/>
<stop offset="0.29" stop-color="#658EC8" stop-opacity="0.92"/>
<stop offset="0.43" stop-color="#769ACE" stop-opacity="0.82"/>
<stop offset="0.57" stop-color="#8EACD6" stop-opacity="0.68"/>
<stop offset="0.72" stop-color="#ACC2E1" stop-opacity="0.5"/>
<stop offset="0.86" stop-color="#D1DDEF" stop-opacity="0.27"/>
<stop offset="0.99" stop-color="#FCFDFE" stop-opacity="0.02"/>
<stop offset="1" stop-color="white" stop-opacity="0"/>
</linearGradient>
<linearGradient id="paint9_linear_18_15" x1="34.2689" y1="285.112" x2="34.2689" y2="258.788" gradientUnits="userSpaceOnUse">
<stop stop-color="white" stop-opacity="0.6"/>
<stop offset="0.02" stop-color="#F8FAFD" stop-opacity="0.62"/>
<stop offset="0.26" stop-color="#B2C6E3" stop-opacity="0.78"/>
<stop offset="0.5" stop-color="#80A1D1" stop-opacity="0.9"/>
<stop offset="0.75" stop-color="#628BC7" stop-opacity="0.98"/>
<stop offset="1" stop-color="#5884C3"/>
</linearGradient>
<linearGradient id="paint10_linear_18_15" x1="172.378" y1="271.436" x2="199.857" y2="249.752" gradientUnits="userSpaceOnUse">
<stop stop-color="white" stop-opacity="0"/>
<stop offset="0.01" stop-color="#FCFDFE" stop-opacity="0.02"/>
<stop offset="0.14" stop-color="#D1DDEF" stop-opacity="0.27"/>
<stop offset="0.28" stop-color="#ACC2E1" stop-opacity="0.5"/>
<stop offset="0.43" stop-color="#8EACD6" stop-opacity="0.68"/>
<stop offset="0.57" stop-color="#769ACE" stop-opacity="0.82"/>
<stop offset="0.71" stop-color="#658EC8" stop-opacity="0.92"/>
<stop offset="0.85" stop-color="#5B86C4" stop-opacity="0.98"/>
<stop offset="1" stop-color="#5884C3"/>
</linearGradient>
<linearGradient id="paint11_linear_18_15" x1="403.235" y1="116.974" x2="316.473" y2="116.974" gradientUnits="userSpaceOnUse">
<stop stop-color="#4058A6"/>
<stop offset="0.25" stop-color="#415AA8" stop-opacity="0.97"/>
<stop offset="0.49" stop-color="#4562AD" stop-opacity="0.89"/>
<stop offset="0.72" stop-color="#4C6FB5" stop-opacity="0.74"/>
<stop offset="0.96" stop-color="#5680C0" stop-opacity="0.54"/>
<stop offset="1" stop-color="#5884C3" stop-opacity="0.5"/>
</linearGradient>
<linearGradient id="paint12_linear_18_15" x1="319.098" y1="116.871" x2="400.858" y2="116.871" gradientUnits="userSpaceOnUse">
<stop stop-color="#F2BA34"/>
<stop offset="0.13" stop-color="#F2BB37" stop-opacity="0.98"/>
<stop offset="0.26" stop-color="#F3BE41" stop-opacity="0.94"/>
<stop offset="0.39" stop-color="#F4C452" stop-opacity="0.85"/>
<stop offset="0.52" stop-color="#F5CC69" stop-opacity="0.74"/>
<stop offset="0.64" stop-color="#F7D686" stop-opacity="0.59"/>
<stop offset="0.77" stop-color="#FAE2AB" stop-opacity="0.41"/>
<stop offset="0.89" stop-color="#FCF1D5" stop-opacity="0.21"/>
<stop offset="1" stop-color="white" stop-opacity="0"/>
</linearGradient>
<linearGradient id="paint13_linear_18_15" x1="396.801" y1="126.232" x2="361.478" y2="126.232" gradientUnits="userSpaceOnUse">
<stop stop-color="#4058A6"/>
<stop offset="0.25" stop-color="#415AA8" stop-opacity="0.97"/>
<stop offset="0.49" stop-color="#4562AD" stop-opacity="0.89"/>
<stop offset="0.72" stop-color="#4C6FB5" stop-opacity="0.74"/>
<stop offset="0.96" stop-color="#5680C0" stop-opacity="0.54"/>
<stop offset="1" stop-color="#5884C3" stop-opacity="0.5"/>
</linearGradient>
<linearGradient id="paint14_linear_18_15" x1="396.801" y1="133.693" x2="378.106" y2="133.693" gradientUnits="userSpaceOnUse">
<stop stop-color="#4058A6"/>
<stop offset="0.25" stop-color="#415AA8" stop-opacity="0.97"/>
<stop offset="0.49" stop-color="#4562AD" stop-opacity="0.89"/>
<stop offset="0.72" stop-color="#4C6FB5" stop-opacity="0.74"/>
<stop offset="0.96" stop-color="#5680C0" stop-opacity="0.54"/>
<stop offset="1" stop-color="#5884C3" stop-opacity="0.5"/>
</linearGradient>
<linearGradient id="paint15_linear_18_15" x1="324.39" y1="104.707" x2="359.709" y2="104.707" gradientUnits="userSpaceOnUse">
<stop stop-color="#4058A6"/>
<stop offset="0.25" stop-color="#415AA8" stop-opacity="0.97"/>
<stop offset="0.49" stop-color="#4562AD" stop-opacity="0.89"/>
<stop offset="0.72" stop-color="#4C6FB5" stop-opacity="0.74"/>
<stop offset="0.96" stop-color="#5680C0" stop-opacity="0.54"/>
<stop offset="1" stop-color="#5884C3" stop-opacity="0.5"/>
</linearGradient>
<linearGradient id="paint16_linear_18_15" x1="324.39" y1="112.168" x2="343.081" y2="112.168" gradientUnits="userSpaceOnUse">
<stop stop-color="#4058A6"/>
<stop offset="0.25" stop-color="#415AA8" stop-opacity="0.97"/>
<stop offset="0.49" stop-color="#4562AD" stop-opacity="0.89"/>
<stop offset="0.72" stop-color="#4C6FB5" stop-opacity="0.74"/>
<stop offset="0.96" stop-color="#5680C0" stop-opacity="0.54"/>
<stop offset="1" stop-color="#5884C3" stop-opacity="0.5"/>
</linearGradient>
<clipPath id="clip0_18_15">
<rect width="542" height="323" fill="white" transform="translate(-57)"/>
</clipPath>
</defs>
</svg>
